<?xml version="1.0" encoding="utf-8"?>
<!-- Generator: Adobe Illustrator 22.0.1, SVG Export Plug-In . SVG Version: 6.00 Build 0)  -->
<svg version="1.1" id="Layer_1" xmlns="http://www.w3.org/2000/svg" xmlns:xlink="http://www.w3.org/1999/xlink" x="0px" y="0px"
	 viewBox="0 0 68 68" style="enable-background:new 0 0 68 68;" xml:space="preserve">
<g>
	<path d="M44.1591339,45.098877c0.1919556,0.1980286,0.5089722,0.2000122,0.7069702,0.0080261
		c3.0180054-2.9530029,4.6799927-6.8990173,4.6799927-11.1080017c0-8.5720215-6.973999-15.5460205-15.5460205-15.5460205
		c-8.5719604,0-15.5459595,6.973999-15.5459595,15.5460205c0,8.572998,6.973999,15.54599,15.5459595,15.54599
		c2.7960205,0,5.5400391-0.7550049,7.9360352-2.1820068c0.2379761-0.1419983,0.315979-0.4490051,0.1740112-0.6860046
		c-0.1430054-0.2389832-0.4509888-0.3150024-0.6849976-0.1739807c-2.2420044,1.3359985-4.809021,2.0419922-7.4250488,2.0419922
		c-8.0209961,0-14.5459595-6.5249939-14.5459595-14.54599c0-8.0200195,6.5249634-14.5460205,14.5459595-14.5460205
		c8.0200195,0,14.5460205,6.526001,14.5460205,14.5460205c0,3.9389954-1.5549927,7.6289978-4.3789673,10.3930054
		C43.970108,44.5848999,43.9660797,44.901886,44.1591339,45.098877"/>
	<path d="M63.1015167,30.5279846c-1.743042,0-3.1760254,1.2960205-3.4210205,2.9710083H54.520462
		c-0.1279907-5.2860107-2.2559814-10.0750122-5.6619873-13.6499939l3.6539917-3.6549988
		c0.6119995,0.4570007,1.3359985,0.697998,2.06604,0.697998c0.8880005,0,1.7779541-0.3390198,2.4549561-1.0159912
		c1.3530273-1.3530273,1.3530273-3.5559998,0-4.9100037c-1.355957-1.3540039-3.55896-1.3520203-4.9109497,0
		c-1.2320557,1.2330017-1.3300171,3.1619873-0.3170166,4.5209961l-3.6539917,3.6549988
		c-3.5750122-3.4070129-8.3649902-5.5350037-13.6520386-5.6629944V8.3190002
		c1.6760254-0.2449951,2.9720459-1.678009,2.9720459-3.4210205c0-1.9140015-1.5570068-3.4719849-3.4720459-3.4719849
		c-1.9140015,0-3.4710083,1.5579834-3.4710083,3.4719849c0,1.7430115,1.2960205,3.1760254,2.9710083,3.4210205v5.1569824
		c-2.3259888,0.0559998-4.6009521,0.4810181-6.7649536,1.3000183c-0.2590332,0.0969849-0.3890381,0.3859863-0.2910156,0.6439819
		c0.0969849,0.2579956,0.3869629,0.3860168,0.6439819,0.2910156c2.2059937-0.8349915,4.5319824-1.2579956,6.9119873-1.2579956
		c10.7780151,0,19.5460205,8.7689819,19.5460205,19.54599c0,10.7779846-8.7680054,19.54599-19.5460205,19.54599
		c-10.7769775,0-19.5449524-8.7680054-19.5449524-19.54599c0-7.0249939,3.7999878-13.5450134,9.9179993-17.0140076
		c0.2409668-0.1359863,0.3249512-0.4419861,0.1879883-0.6820068c-0.1370239-0.2399902-0.4420166-0.3249817-0.6820068-0.1869812
		c-1.4860229,0.84198-2.835022,1.8630066-4.0410156,3.0140076l-3.6429749-3.6430054
		c1.0119934-1.3590088,0.9150085-3.2879944-0.3179932-4.5209961c-1.3529968-1.3520203-3.5559998-1.3540039-4.9100037,0
		c-1.3529968,1.3549805-1.3529968,3.5569763,0,4.9100037c0.677002,0.6769714,1.5660095,1.0159912,2.4549866,1.0159912
		c0.730011,0,1.4530029-0.2409973,2.0660095-0.697998l3.6449585,3.644989
		c-3.4709473,3.6530151-5.5349731,8.5090027-5.6619568,13.6600037h-5.151001
		c-0.2449951-1.6749878-1.678009-2.9710083-3.42099-2.9710083c-1.9140015,0-3.4720154,1.5570068-3.4720154,3.4710083
		s1.5580139,3.4719849,3.4720154,3.4719849c1.742981,0,3.1759949-1.29599,3.42099-2.9719849h5.1600037
		c0.1279907,5.2860107,2.2559814,10.0759888,5.6619873,13.6520081l-3.6539917,3.6539917
		c-1.3590088-1.0130005-3.2890015-0.9150085-4.5209961,0.3169861c-1.3529968,1.355011-1.3529968,3.5570068,0,4.9110107
		c0.677002,0.6759949,1.5669861,1.0150146,2.4549866,1.0150146c0.8890076,0,1.7790222-0.3390198,2.4550171-1.0150146
		c1.2330017-1.2330017,1.3299866-3.1629944,0.3179932-4.5209961l3.6539612-3.6539917
		c3.5750122,3.4060059,8.3650513,5.5339966,13.651001,5.6619873v5.1600037
		c-1.6749878,0.2449951-2.9710083,1.678009-2.9710083,3.4219971c0,1.9140015,1.5570068,3.4720154,3.4710083,3.4720154
		c1.9150391,0,3.4720459-1.5580139,3.4720459-3.4720154c0-1.743988-1.2960205-3.177002-2.9720459-3.4219971V54.519989
		c5.2870483-0.1279907,10.0770264-2.2559814,13.6520386-5.6619873l3.6539917,3.6549988
		c-1.0130005,1.3569946-0.9150391,3.2869873,0.3170166,4.519989c0.677002,0.6759949,1.5669556,1.0150146,2.4559937,1.0150146
		c0.8880005,0,1.7779541-0.3390198,2.4549561-1.0150146c1.3530273-1.3540039,1.3530273-3.5559998,0-4.9100037
		c-0.6560059-0.6560059-1.5279541-1.0169983-2.4539795-1.0169983h-0.0020142
		c-0.7579956,0.0010071-1.4710083,0.2529907-2.0669556,0.697998l-3.6520386-3.6529846
		c3.4060059-3.5760193,5.5339966-8.3659973,5.6619873-13.6520081h5.1600342
		c0.2449951,1.6759949,1.6779785,2.9719849,3.4210205,2.9719849c1.9139404,0,3.4719849-1.5579834,3.4719849-3.4719849
		S65.0154572,30.5279846,63.1015167,30.5279846 M52.8304596,11.6730042
		c0.4810181-0.4810181,1.1140137-0.7230225,1.7480469-0.7230225c0.631958,0,1.2649536,0.2420044,1.7479858,0.7230225
		c0.9630127,0.9639893,0.9630127,2.5319824,0,3.4960022c-0.9650269,0.9649963-2.5319824,0.9629822-3.4960327,0
		C51.8675079,14.2049866,51.8664703,12.6369934,52.8304596,11.6730042 M31.5284576,4.8979797
		c0-1.3639832,1.1080322-2.4719849,2.4710083-2.4719849c1.3640137,0,2.4720459,1.1080017,2.4720459,2.4719849
		c0,1.3630066-1.1080322,2.4710083-2.4720459,2.4710083C32.6364899,7.368988,31.5284576,6.2609863,31.5284576,4.8979797
		 M15.1695099,15.1690063c-0.9649963,0.9629822-2.5310059,0.9629822-3.4960022,0
		c-0.9639893-0.9640198-0.9630127-2.5320129,0-3.4960022c0.4830017-0.4810181,1.1149902-0.7230225,1.7479858-0.7230225
		c0.6340027,0,1.2669983,0.2420044,1.7480164,0.7230225C16.1334991,12.6369934,16.1324921,14.2049866,15.1695099,15.1690063
		 M4.8985138,36.4709778c-1.3630066,0-2.4720154-1.1079712-2.4720154-2.4719849
		c0-1.3630066,1.1090088-2.4710083,2.4720154-2.4710083c1.3629761,0,2.4719849,1.1080017,2.4719849,2.4710083
		C7.3704987,35.3630066,6.2614899,36.4709778,4.8985138,36.4709778 M15.1695099,56.3249817
		c-0.9649963,0.9630127-2.5310059,0.9630127-3.4960022,0c-0.9639893-0.9629822-0.9630127-2.5319824,0-3.4960022
		c0.4819946-0.4809875,1.1139832-0.7219849,1.7479858-0.7219849c0.6329956,0,1.2660217,0.2409973,1.7480164,0.7219849
		C16.1324921,53.7929993,16.1334991,55.3619995,15.1695099,56.3249817 M36.4715118,63.1019897
		c0,1.3630066-1.1080322,2.4720154-2.4720459,2.4720154c-1.3629761,0-2.4710083-1.1090088-2.4710083-2.4720154
		s1.1080322-2.4729919,2.4710083-2.4729919C35.3634796,60.6289978,36.4715118,61.7389832,36.4715118,63.1019897
		 M52.8304596,52.8299866c0.4660034-0.4660034,1.0859985-0.7229919,1.7470093-0.723999h0.0020142
		c0.6599731,0,1.2800293,0.2579956,1.7470093,0.723999c0.9630127,0.9640198,0.9630127,2.5320129,0,3.4949951
		c-0.9650269,0.9630127-2.5319824,0.9630127-3.4960327,0C51.8664703,55.3619995,51.8664703,53.7940063,52.8304596,52.8299866
		 M63.1015167,36.4709778c-1.3630371,0-2.4720459-1.1079712-2.4720459-2.4719849
		c0-1.3630066,1.1090088-2.4710083,2.4720459-2.4710083c1.3629761,0,2.4719849,1.1080017,2.4719849,2.4710083
		C65.5735016,35.3630066,64.4644928,36.4709778,63.1015167,36.4709778"/>
</g>
</svg>
